<svg xmlns="http://www.w3.org/2000/svg" viewBox="0 0 1600 1000" preserveAspectRatio="xMidYMid slice">
<defs><linearGradient id="sky" x1="0" y1="0" x2="0" y2="1"><stop offset="0" stop-color="#b9cbd2"/><stop offset="1" stop-color="#f2e6d0"/></linearGradient>
<radialGradient id="glow" cx=".5" cy=".5" r=".5"><stop offset="0" stop-color="#fff4dc" stop-opacity=".9"/><stop offset="1" stop-color="#fff4dc" stop-opacity="0"/></radialGradient>
<linearGradient id="glass" x1="0" y1="0" x2="1" y2="1"><stop offset="0" stop-color="#fff4dc" stop-opacity=".95"/><stop offset="1" stop-color="#fff4dc" stop-opacity=".55"/></linearGradient></defs>
<rect width="1600" height="1000" fill="url(#sky)"/><path d="M0 1000 L0 520 L0 518 L100 491 L200 474 L300 469 L400 460 L500 481 L600 495 L700 510 L800 539 L900 554 L1000 559 L1100 549 L1200 553 L1300 518 L1400 511 L1500 483 L1600 466 L1600 1000Z" fill="#7c9183"/><path d="M1331 458 L1311 532 L1352 532Z" fill="#7c9183"/><path d="M238 453 L215 536 L261 536Z" fill="#7c9183"/><path d="M794 435 L765 540 L824 540Z" fill="#7c9183"/><path d="M867 447 L848 516 L886 516Z" fill="#7c9183"/><path d="M1297 437 L1276 512 L1318 512Z" fill="#7c9183"/><path d="M1590 464 L1569 538 L1611 538Z" fill="#7c9183"/><path d="M1280 399 L1247 517 L1313 517Z" fill="#7c9183"/><path d="M899 443 L880 511 L918 511Z" fill="#7c9183"/><path d="M385 476 L367 543 L404 543Z" fill="#7c9183"/><path d="M543 430 L520 514 L567 514Z" fill="#7c9183"/><path d="M717 417 L687 524 L747 524Z" fill="#7c9183"/><path d="M774 438 L749 525 L798 525Z" fill="#7c9183"/><path d="M1596 440 L1568 537 L1623 537Z" fill="#7c9183"/><path d="M1483 476 L1465 541 L1501 541Z" fill="#7c9183"/><path d="M1075 412 L1047 512 L1103 512Z" fill="#7c9183"/><path d="M482 465 L461 541 L503 541Z" fill="#7c9183"/><path d="M302 461 L281 538 L324 538Z" fill="#7c9183"/><path d="M1509 435 L1482 531 L1536 531Z" fill="#7c9183"/><path d="M591 425 L563 526 L619 526Z" fill="#7c9183"/><path d="M131 410 L98 527 L163 527Z" fill="#7c9183"/><path d="M1445 461 L1422 545 L1469 545Z" fill="#7c9183"/><path d="M502 443 L473 547 L531 547Z" fill="#7c9183"/><path d="M1246 410 L1214 523 L1278 523Z" fill="#7c9183"/><path d="M1241 457 L1221 527 L1260 527Z" fill="#7c9183"/><path d="M59 455 L42 517 L76 517Z" fill="#7c9183"/><path d="M1478 460 L1455 543 L1501 543Z" fill="#7c9183"/><path d="M0 1000 L0 640 L0 589 L100 579 L200 585 L300 586 L400 599 L500 617 L600 624 L700 646 L800 651 L900 676 L1000 681 L1100 663 L1200 662 L1300 651 L1400 638 L1500 623 L1600 609 L1600 1000Z" fill="#5d7465"/><path d="M515 510 L478 643 L552 643Z" fill="#5d7465"/><path d="M553 511 L519 633 L588 633Z" fill="#5d7465"/><path d="M446 532 L415 645 L478 645Z" fill="#5d7465"/><path d="M909 483 L865 641 L953 641Z" fill="#5d7465"/><path d="M302 499 L258 656 L346 656Z" fill="#5d7465"/><path d="M704 494 L661 647 L747 647Z" fill="#5d7465"/><path d="M31 489 L-9 636 L72 636Z" fill="#5d7465"/><path d="M456 479 L410 644 L502 644Z" fill="#5d7465"/><path d="M341 530 L308 648 L374 648Z" fill="#5d7465"/><path d="M630 530 L596 652 L664 652Z" fill="#5d7465"/><path d="M211 502 L175 634 L248 634Z" fill="#5d7465"/><path d="M527 540 L491 669 L563 669Z" fill="#5d7465"/><path d="M1408 478 L1361 646 L1455 646Z" fill="#5d7465"/><path d="M613 500 L576 633 L651 633Z" fill="#5d7465"/><path d="M202 532 L164 667 L240 667Z" fill="#5d7465"/><path d="M784 547 L752 661 L816 661Z" fill="#5d7465"/><path d="M1243 535 L1212 646 L1274 646Z" fill="#5d7465"/><path d="M1557 532 L1526 642 L1588 642Z" fill="#5d7465"/><path d="M179 468 L132 635 L226 635Z" fill="#5d7465"/><path d="M1549 508 L1508 653 L1589 653Z" fill="#5d7465"/><path d="M0 1000 L0 760 L0 713 L100 729 L200 729 L300 750 L400 743 L500 755 L600 765 L700 784 L800 774 L900 778 L1000 788 L1100 773 L1200 769 L1300 773 L1400 757 L1500 735 L1600 739 L1600 1000Z" fill="#40564a"/><path d="M1362 616 L1316 781 L1409 781Z" fill="#40564a"/><path d="M378 575 L319 788 L438 788Z" fill="#40564a"/><path d="M1209 602 L1160 778 L1258 778Z" fill="#40564a"/><path d="M310 593 L258 779 L362 779Z" fill="#40564a"/><path d="M1189 587 L1136 777 L1242 777Z" fill="#40564a"/><path d="M1058 549 L1002 751 L1115 751Z" fill="#40564a"/><path d="M507 571 L446 787 L567 787Z" fill="#40564a"/><path d="M753 574 L695 783 L812 783Z" fill="#40564a"/><path d="M136 582 L86 761 L186 761Z" fill="#40564a"/><path d="M1201 551 L1141 762 L1260 762Z" fill="#40564a"/><path d="M694 565 L635 777 L754 777Z" fill="#40564a"/><path d="M564 583 L512 769 L616 769Z" fill="#40564a"/><path d="M45 548 L-13 759 L104 759Z" fill="#40564a"/><path d="M334 575 L274 789 L394 789Z" fill="#40564a"/><rect y="820" width="1600" height="180" fill="#b9cbd2" opacity=".85"/><g stroke="#fff" opacity=".35"><line x1="961" y1="971" x2="1060" y2="971"/><line x1="1181" y1="916" x2="1231" y2="916"/><line x1="339" y1="874" x2="438" y2="874"/><line x1="1574" y1="901" x2="1666" y2="901"/><line x1="884" y1="846" x2="1000" y2="846"/><line x1="792" y1="955" x2="836" y2="955"/><line x1="1487" y1="894" x2="1564" y2="894"/><line x1="428" y1="849" x2="496" y2="849"/><line x1="1131" y1="932" x2="1239" y2="932"/><line x1="988" y1="970" x2="1107" y2="970"/><line x1="1436" y1="885" x2="1515" y2="885"/><line x1="1107" y1="860" x2="1151" y2="860"/><line x1="1221" y1="864" x2="1320" y2="864"/><line x1="380" y1="923" x2="486" y2="923"/></g><ellipse cx="800" cy="660" rx="420" ry="260" fill="url(#glow)" opacity=".55"/><rect x="580" y="590" width="440" height="190" fill="url(#glass)" stroke="#222" stroke-width="10"/><rect x="550" y="565" width="500" height="28" fill="#222"/><rect x="500" y="780" width="600" height="16" fill="#3a2c1c"/><path d="M740 590 V780 M860 590 V780" stroke="#222" stroke-width="6"/></svg>