<svg xmlns="http://www.w3.org/2000/svg" viewBox="0 0 1600 1000" preserveAspectRatio="xMidYMid slice">
<defs><linearGradient id="sky" x1="0" y1="0" x2="0" y2="1"><stop offset="0" stop-color="#1b2620"/><stop offset="1" stop-color="#7e6a4c"/></linearGradient>
<radialGradient id="glow" cx=".5" cy=".5" r=".5"><stop offset="0" stop-color="#ffd28c" stop-opacity=".9"/><stop offset="1" stop-color="#ffd28c" stop-opacity="0"/></radialGradient>
<linearGradient id="glass" x1="0" y1="0" x2="1" y2="1"><stop offset="0" stop-color="#ffd28c" stop-opacity=".95"/><stop offset="1" stop-color="#ffd28c" stop-opacity=".55"/></linearGradient></defs>
<rect width="1600" height="1000" fill="url(#sky)"/><circle cx="49" cy="379" r="1.6" fill="#fff" opacity="0.46"/><circle cx="1568" cy="269" r="1.1" fill="#fff" opacity="0.78"/><circle cx="833" cy="465" r="1.5" fill="#fff" opacity="0.64"/><circle cx="344" cy="278" r="1.4" fill="#fff" opacity="0.87"/><circle cx="922" cy="92" r="1.0" fill="#fff" opacity="0.26"/><circle cx="1540" cy="417" r="1.0" fill="#fff" opacity="0.37"/><circle cx="1312" cy="43" r="1.4" fill="#fff" opacity="0.21"/><circle cx="213" cy="184" r="1.0" fill="#fff" opacity="0.60"/><circle cx="125" cy="54" r="0.7" fill="#fff" opacity="0.20"/><circle cx="921" cy="442" r="1.8" fill="#fff" opacity="0.55"/><circle cx="1023" cy="289" r="1.3" fill="#fff" opacity="0.84"/><circle cx="966" cy="0" r="1.4" fill="#fff" opacity="0.86"/><circle cx="473" cy="84" r="1.1" fill="#fff" opacity="0.33"/><circle cx="501" cy="454" r="1.5" fill="#fff" opacity="0.81"/><circle cx="1015" cy="355" r="0.4" fill="#fff" opacity="0.53"/><circle cx="231" cy="117" r="1.0" fill="#fff" opacity="0.85"/><circle cx="997" cy="441" r="1.3" fill="#fff" opacity="0.73"/><circle cx="293" cy="85" r="0.8" fill="#fff" opacity="0.35"/><circle cx="700" cy="39" r="0.6" fill="#fff" opacity="0.26"/><circle cx="931" cy="189" r="1.8" fill="#fff" opacity="0.88"/><circle cx="1394" cy="278" r="0.7" fill="#fff" opacity="0.50"/><circle cx="635" cy="219" r="1.6" fill="#fff" opacity="0.44"/><circle cx="1398" cy="45" r="1.0" fill="#fff" opacity="0.26"/><circle cx="529" cy="273" r="1.6" fill="#fff" opacity="0.27"/><circle cx="1229" cy="281" r="2.0" fill="#fff" opacity="0.73"/><circle cx="1230" cy="352" r="0.7" fill="#fff" opacity="0.36"/><circle cx="1177" cy="229" r="0.8" fill="#fff" opacity="0.62"/><circle cx="924" cy="270" r="2.0" fill="#fff" opacity="0.24"/><circle cx="837" cy="290" r="0.5" fill="#fff" opacity="0.65"/><circle cx="717" cy="99" r="1.0" fill="#fff" opacity="0.48"/><circle cx="1236" cy="330" r="1.6" fill="#fff" opacity="0.51"/><circle cx="611" cy="101" r="1.2" fill="#fff" opacity="0.68"/><circle cx="468" cy="36" r="1.8" fill="#fff" opacity="0.71"/><circle cx="742" cy="279" r="1.6" fill="#fff" opacity="0.39"/><circle cx="775" cy="238" r="1.0" fill="#fff" opacity="0.55"/><circle cx="1305" cy="79" r="1.4" fill="#fff" opacity="0.83"/><circle cx="862" cy="387" r="0.5" fill="#fff" opacity="0.88"/><circle cx="940" cy="232" r="1.1" fill="#fff" opacity="0.52"/><circle cx="266" cy="123" r="1.6" fill="#fff" opacity="0.46"/><circle cx="1341" cy="282" r="1.1" fill="#fff" opacity="0.79"/><circle cx="1260" cy="44" r="1.2" fill="#fff" opacity="0.86"/><circle cx="414" cy="230" r="0.9" fill="#fff" opacity="0.81"/><circle cx="153" cy="418" r="1.0" fill="#fff" opacity="0.64"/><circle cx="660" cy="490" r="1.4" fill="#fff" opacity="0.55"/><circle cx="380" cy="381" r="1.6" fill="#fff" opacity="0.38"/><circle cx="774" cy="234" r="1.8" fill="#fff" opacity="0.27"/><circle cx="166" cy="494" r="1.5" fill="#fff" opacity="0.82"/><circle cx="1187" cy="215" r="1.7" fill="#fff" opacity="0.80"/><circle cx="230" cy="329" r="1.5" fill="#fff" opacity="0.52"/><circle cx="498" cy="484" r="1.4" fill="#fff" opacity="0.65"/><circle cx="790" cy="176" r="1.4" fill="#fff" opacity="0.38"/><circle cx="1325" cy="204" r="0.8" fill="#fff" opacity="0.27"/><circle cx="903" cy="202" r="0.9" fill="#fff" opacity="0.21"/><circle cx="626" cy="170" r="1.0" fill="#fff" opacity="0.22"/><circle cx="999" cy="162" r="0.8" fill="#fff" opacity="0.80"/><circle cx="204" cy="237" r="1.5" fill="#fff" opacity="0.64"/><circle cx="526" cy="73" r="2.0" fill="#fff" opacity="0.42"/><circle cx="726" cy="60" r="0.6" fill="#fff" opacity="0.73"/><circle cx="1314" cy="391" r="1.7" fill="#fff" opacity="0.40"/><circle cx="161" cy="428" r="2.0" fill="#fff" opacity="0.89"/><circle cx="604" cy="81" r="0.7" fill="#fff" opacity="0.81"/><circle cx="1255" cy="182" r="1.3" fill="#fff" opacity="0.40"/><circle cx="231" cy="354" r="0.9" fill="#fff" opacity="0.51"/><circle cx="501" cy="440" r="1.2" fill="#fff" opacity="0.83"/><circle cx="95" cy="241" r="1.7" fill="#fff" opacity="0.62"/><circle cx="1084" cy="181" r="1.6" fill="#fff" opacity="0.55"/><circle cx="1060" cy="275" r="1.2" fill="#fff" opacity="0.42"/><circle cx="1343" cy="287" r="1.1" fill="#fff" opacity="0.43"/><circle cx="985" cy="295" r="2.0" fill="#fff" opacity="0.69"/><circle cx="145" cy="267" r="1.1" fill="#fff" opacity="0.43"/><circle cx="874" cy="185" r="0.6" fill="#fff" opacity="0.39"/><circle cx="1498" cy="73" r="0.5" fill="#fff" opacity="0.28"/><circle cx="897" cy="273" r="2.0" fill="#fff" opacity="0.52"/><circle cx="1121" cy="179" r="1.9" fill="#fff" opacity="0.56"/><circle cx="494" cy="363" r="0.5" fill="#fff" opacity="0.40"/><circle cx="1548" cy="139" r="0.7" fill="#fff" opacity="0.68"/><circle cx="486" cy="303" r="0.6" fill="#fff" opacity="0.85"/><circle cx="81" cy="235" r="0.5" fill="#fff" opacity="0.85"/><circle cx="1418" cy="252" r="1.4" fill="#fff" opacity="0.50"/><circle cx="1408" cy="488" r="1.9" fill="#fff" opacity="0.86"/><circle cx="1303" cy="176" r="1.4" fill="#fff" opacity="0.25"/><circle cx="1020" cy="218" r="1.1" fill="#fff" opacity="0.21"/><circle cx="649" cy="177" r="1.9" fill="#fff" opacity="0.66"/><circle cx="35" cy="80" r="2.0" fill="#fff" opacity="0.68"/><circle cx="172" cy="435" r="1.6" fill="#fff" opacity="0.64"/><circle cx="105" cy="262" r="0.6" fill="#fff" opacity="0.81"/><circle cx="208" cy="187" r="1.0" fill="#fff" opacity="0.47"/><circle cx="1339" cy="181" r="1.6" fill="#fff" opacity="0.32"/><circle cx="938" cy="356" r="0.5" fill="#fff" opacity="0.69"/><circle cx="729" cy="54" r="0.5" fill="#fff" opacity="0.85"/><circle cx="711" cy="310" r="0.7" fill="#fff" opacity="0.28"/><circle cx="642" cy="440" r="1.0" fill="#fff" opacity="0.70"/><circle cx="705" cy="113" r="0.8" fill="#fff" opacity="0.20"/><circle cx="1366" cy="295" r="0.9" fill="#fff" opacity="0.87"/><circle cx="619" cy="29" r="1.5" fill="#fff" opacity="0.52"/><circle cx="1281" cy="378" r="1.9" fill="#fff" opacity="0.83"/><circle cx="308" cy="339" r="1.4" fill="#fff" opacity="0.45"/><circle cx="705" cy="421" r="0.6" fill="#fff" opacity="0.71"/><circle cx="360" cy="432" r="1.9" fill="#fff" opacity="0.87"/><circle cx="188" cy="56" r="0.6" fill="#fff" opacity="0.38"/><circle cx="963" cy="461" r="0.6" fill="#fff" opacity="0.37"/><circle cx="145" cy="6" r="0.8" fill="#fff" opacity="0.38"/><circle cx="327" cy="86" r="1.4" fill="#fff" opacity="0.89"/><circle cx="1095" cy="113" r="0.9" fill="#fff" opacity="0.72"/><circle cx="1534" cy="217" r="1.8" fill="#fff" opacity="0.64"/><circle cx="660" cy="235" r="1.3" fill="#fff" opacity="0.81"/><circle cx="1097" cy="185" r="0.7" fill="#fff" opacity="0.81"/><circle cx="950" cy="229" r="1.8" fill="#fff" opacity="0.58"/><circle cx="576" cy="284" r="1.6" fill="#fff" opacity="0.55"/><circle cx="210" cy="51" r="1.0" fill="#fff" opacity="0.85"/><circle cx="278" cy="228" r="1.5" fill="#fff" opacity="0.69"/><circle cx="863" cy="174" r="1.2" fill="#fff" opacity="0.36"/><circle cx="833" cy="493" r="1.1" fill="#fff" opacity="0.75"/><circle cx="1235" cy="372" r="1.2" fill="#fff" opacity="0.34"/><circle cx="69" cy="297" r="0.8" fill="#fff" opacity="0.77"/><circle cx="1537" cy="360" r="0.4" fill="#fff" opacity="0.47"/><circle cx="851" cy="354" r="1.4" fill="#fff" opacity="0.51"/><circle cx="120" cy="346" r="1.6" fill="#fff" opacity="0.68"/><circle cx="1339" cy="497" r="0.5" fill="#fff" opacity="0.56"/><circle cx="813" cy="176" r="1.3" fill="#fff" opacity="0.74"/><path d="M0 1000 L0 520 L0 504 L100 488 L200 476 L300 469 L400 452 L500 462 L600 493 L700 504 L800 539 L900 546 L1000 562 L1100 551 L1200 546 L1300 522 L1400 510 L1500 482 L1600 476 L1600 1000Z" fill="#2f3d31"/><path d="M252 432 L219 548 L284 548Z" fill="#2f3d31"/><path d="M1167 443 L1142 530 L1191 530Z" fill="#2f3d31"/><path d="M486 432 L460 528 L513 528Z" fill="#2f3d31"/><path d="M1012 418 L982 526 L1042 526Z" fill="#2f3d31"/><path d="M1082 447 L1054 546 L1110 546Z" fill="#2f3d31"/><path d="M754 401 L722 514 L786 514Z" fill="#2f3d31"/><path d="M576 434 L552 521 L601 521Z" fill="#2f3d31"/><path d="M156 432 L129 531 L184 531Z" fill="#2f3d31"/><path d="M1095 466 L1074 541 L1116 541Z" fill="#2f3d31"/><path d="M289 470 L272 530 L306 530Z" fill="#2f3d31"/><path d="M366 447 L343 529 L389 529Z" fill="#2f3d31"/><path d="M229 450 L201 549 L256 549Z" fill="#2f3d31"/><path d="M1061 415 L1032 517 L1089 517Z" fill="#2f3d31"/><path d="M1254 428 L1225 534 L1284 534Z" fill="#2f3d31"/><path d="M1097 461 L1073 547 L1121 547Z" fill="#2f3d31"/><path d="M1311 450 L1293 515 L1329 515Z" fill="#2f3d31"/><path d="M94 450 L68 542 L120 542Z" fill="#2f3d31"/><path d="M1052 435 L1031 513 L1074 513Z" fill="#2f3d31"/><path d="M1409 465 L1391 530 L1427 530Z" fill="#2f3d31"/><path d="M908 455 L884 539 L931 539Z" fill="#2f3d31"/><path d="M542 405 L512 511 L571 511Z" fill="#2f3d31"/><path d="M1246 438 L1226 510 L1266 510Z" fill="#2f3d31"/><path d="M278 446 L254 533 L303 533Z" fill="#2f3d31"/><path d="M1144 426 L1119 513 L1168 513Z" fill="#2f3d31"/><path d="M549 477 L531 539 L566 539Z" fill="#2f3d31"/><path d="M1315 414 L1288 511 L1343 511Z" fill="#2f3d31"/><path d="M0 1000 L0 640 L0 590 L100 597 L200 586 L300 592 L400 599 L500 616 L600 635 L700 651 L800 656 L900 661 L1000 670 L1100 670 L1200 666 L1300 663 L1400 649 L1500 633 L1600 612 L1600 1000Z" fill="#223026"/><path d="M1227 528 L1194 644 L1259 644Z" fill="#223026"/><path d="M705 492 L662 645 L748 645Z" fill="#223026"/><path d="M1556 478 L1512 635 L1600 635Z" fill="#223026"/><path d="M655 486 L613 635 L697 635Z" fill="#223026"/><path d="M77 515 L43 637 L112 637Z" fill="#223026"/><path d="M1026 467 L979 633 L1072 633Z" fill="#223026"/><path d="M781 494 L743 631 L819 631Z" fill="#223026"/><path d="M693 488 L653 632 L734 632Z" fill="#223026"/><path d="M1163 466 L1117 632 L1210 632Z" fill="#223026"/><path d="M1445 503 L1402 658 L1489 658Z" fill="#223026"/><path d="M1535 488 L1492 640 L1578 640Z" fill="#223026"/><path d="M89 490 L47 637 L130 637Z" fill="#223026"/><path d="M889 472 L841 641 L936 641Z" fill="#223026"/><path d="M1163 511 L1125 648 L1201 648Z" fill="#223026"/><path d="M480 474 L434 640 L526 640Z" fill="#223026"/><path d="M837 501 L792 662 L882 662Z" fill="#223026"/><path d="M934 523 L898 652 L970 652Z" fill="#223026"/><path d="M60 528 L25 650 L94 650Z" fill="#223026"/><path d="M571 541 L536 668 L607 668Z" fill="#223026"/><path d="M522 515 L484 647 L559 647Z" fill="#223026"/><path d="M0 1000 L0 760 L0 728 L100 728 L200 734 L300 740 L400 758 L500 753 L600 768 L700 770 L800 775 L900 777 L1000 783 L1100 776 L1200 775 L1300 759 L1400 746 L1500 752 L1600 727 L1600 1000Z" fill="#15201a"/><path d="M1161 611 L1114 778 L1208 778Z" fill="#15201a"/><path d="M686 618 L641 780 L732 780Z" fill="#15201a"/><path d="M444 617 L397 786 L491 786Z" fill="#15201a"/><path d="M638 559 L583 757 L694 757Z" fill="#15201a"/><path d="M1435 557 L1378 763 L1493 763Z" fill="#15201a"/><path d="M1450 584 L1400 764 L1501 764Z" fill="#15201a"/><path d="M33 577 L-16 756 L84 756Z" fill="#15201a"/><path d="M789 606 L738 787 L840 787Z" fill="#15201a"/><path d="M106 563 L49 766 L163 766Z" fill="#15201a"/><path d="M74 608 L29 770 L119 770Z" fill="#15201a"/><path d="M951 612 L905 778 L998 778Z" fill="#15201a"/><path d="M618 595 L573 757 L663 757Z" fill="#15201a"/><path d="M622 601 L570 786 L674 786Z" fill="#15201a"/><path d="M1084 571 L1032 755 L1135 755Z" fill="#15201a"/><ellipse cx="800" cy="640" rx="420" ry="260" fill="url(#glow)" opacity=".55"/><g><path d="M610 760 L610 590 L800 430 L990 590 L990 760Z" fill="url(#glass)" stroke="#1a1a1a" stroke-width="10" stroke-linejoin="round"/><path d="M800 430 L800 760 M610 590 L990 590 M705 510 L705 760 M895 510 L895 760" stroke="#1a1a1a" stroke-width="6"/><rect x="560" y="760" width="480" height="18" fill="#1a1a1a"/></g><rect x="4" y="-20" width="13" height="1040" fill="#6b8a4a"/><rect x="2" y="56" width="17" height="5" fill="#2c3d22" opacity=".6"/><rect x="2" y="191" width="17" height="5" fill="#2c3d22" opacity=".6"/><rect x="2" y="348" width="17" height="5" fill="#2c3d22" opacity=".6"/><rect x="2" y="512" width="17" height="5" fill="#2c3d22" opacity=".6"/><rect x="2" y="661" width="17" height="5" fill="#2c3d22" opacity=".6"/><rect x="2" y="791" width="17" height="5" fill="#2c3d22" opacity=".6"/><rect x="2" y="919" width="17" height="5" fill="#2c3d22" opacity=".6"/><path d="M11 44 q-60 -10 -120 30 q60 -5 120 -30Z" fill="#6b8a4a" opacity=".9"/><path d="M11 120 q60 -10 120 30 q-60 -5 -120 -30Z" fill="#6b8a4a" opacity=".9"/><path d="M11 764 q60 -10 120 30 q-60 -5 -120 -30Z" fill="#6b8a4a" opacity=".9"/><path d="M11 182 q60 -10 120 30 q-60 -5 -120 -30Z" fill="#6b8a4a" opacity=".9"/><rect x="1374" y="-20" width="21" height="1040" fill="#6b8a4a"/><rect x="1372" y="62" width="25" height="5" fill="#2c3d22" opacity=".6"/><rect x="1372" y="237" width="25" height="5" fill="#2c3d22" opacity=".6"/><rect x="1372" y="360" width="25" height="5" fill="#2c3d22" opacity=".6"/><rect x="1372" y="534" width="25" height="5" fill="#2c3d22" opacity=".6"/><rect x="1372" y="655" width="25" height="5" fill="#2c3d22" opacity=".6"/><rect x="1372" y="793" width="25" height="5" fill="#2c3d22" opacity=".6"/><rect x="1372" y="956" width="25" height="5" fill="#2c3d22" opacity=".6"/><path d="M1385 247 q-60 -10 -120 30 q60 -5 120 -30Z" fill="#6b8a4a" opacity=".9"/><path d="M1385 669 q60 -10 120 30 q-60 -5 -120 -30Z" fill="#6b8a4a" opacity=".9"/><path d="M1385 710 q-60 -10 -120 30 q60 -5 120 -30Z" fill="#6b8a4a" opacity=".9"/><path d="M1385 17 q60 -10 120 30 q-60 -5 -120 -30Z" fill="#6b8a4a" opacity=".9"/><rect x="223" y="-20" width="24" height="1040" fill="#87a35c"/><rect x="221" y="92" width="28" height="5" fill="#2c3d22" opacity=".6"/><rect x="221" y="226" width="28" height="5" fill="#2c3d22" opacity=".6"/><rect x="221" y="386" width="28" height="5" fill="#2c3d22" opacity=".6"/><rect x="221" y="535" width="28" height="5" fill="#2c3d22" opacity=".6"/><rect x="221" y="670" width="28" height="5" fill="#2c3d22" opacity=".6"/><rect x="221" y="795" width="28" height="5" fill="#2c3d22" opacity=".6"/><rect x="221" y="915" width="28" height="5" fill="#2c3d22" opacity=".6"/><path d="M235 385 q-60 -10 -120 30 q60 -5 120 -30Z" fill="#87a35c" opacity=".9"/><path d="M235 137 q60 -10 120 30 q-60 -5 -120 -30Z" fill="#87a35c" opacity=".9"/><path d="M235 160 q-60 -10 -120 30 q60 -5 120 -30Z" fill="#87a35c" opacity=".9"/><path d="M235 630 q60 -10 120 30 q-60 -5 -120 -30Z" fill="#87a35c" opacity=".9"/><rect x="1487" y="-20" width="24" height="1040" fill="#4f6b3a"/><rect x="1485" y="76" width="28" height="5" fill="#2c3d22" opacity=".6"/><rect x="1485" y="244" width="28" height="5" fill="#2c3d22" opacity=".6"/><rect x="1485" y="420" width="28" height="5" fill="#2c3d22" opacity=".6"/><rect x="1485" y="591" width="28" height="5" fill="#2c3d22" opacity=".6"/><rect x="1485" y="736" width="28" height="5" fill="#2c3d22" opacity=".6"/><rect x="1485" y="864" width="28" height="5" fill="#2c3d22" opacity=".6"/><path d="M1499 444 q-60 -10 -120 30 q60 -5 120 -30Z" fill="#4f6b3a" opacity=".9"/><path d="M1499 0 q60 -10 120 30 q-60 -5 -120 -30Z" fill="#4f6b3a" opacity=".9"/><path d="M1499 265 q-60 -10 -120 30 q60 -5 120 -30Z" fill="#4f6b3a" opacity=".9"/><path d="M1499 340 q-60 -10 -120 30 q60 -5 120 -30Z" fill="#4f6b3a" opacity=".9"/><rect x="2" y="-20" width="10" height="1040" fill="#6b8a4a"/><rect x="0" y="98" width="14" height="5" fill="#2c3d22" opacity=".6"/><rect x="0" y="275" width="14" height="5" fill="#2c3d22" opacity=".6"/><rect x="0" y="444" width="14" height="5" fill="#2c3d22" opacity=".6"/><rect x="0" y="583" width="14" height="5" fill="#2c3d22" opacity=".6"/><rect x="0" y="746" width="14" height="5" fill="#2c3d22" opacity=".6"/><rect x="0" y="886" width="14" height="5" fill="#2c3d22" opacity=".6"/><path d="M7 281 q60 -10 120 30 q-60 -5 -120 -30Z" fill="#6b8a4a" opacity=".9"/><path d="M7 435 q-60 -10 -120 30 q60 -5 120 -30Z" fill="#6b8a4a" opacity=".9"/><path d="M7 490 q60 -10 120 30 q-60 -5 -120 -30Z" fill="#6b8a4a" opacity=".9"/><path d="M7 335 q60 -10 120 30 q-60 -5 -120 -30Z" fill="#6b8a4a" opacity=".9"/><rect x="1491" y="-20" width="11" height="1040" fill="#87a35c"/><rect x="1489" y="75" width="15" height="5" fill="#2c3d22" opacity=".6"/><rect x="1489" y="204" width="15" height="5" fill="#2c3d22" opacity=".6"/><rect x="1489" y="338" width="15" height="5" fill="#2c3d22" opacity=".6"/><rect x="1489" y="516" width="15" height="5" fill="#2c3d22" opacity=".6"/><rect x="1489" y="675" width="15" height="5" fill="#2c3d22" opacity=".6"/><rect x="1489" y="819" width="15" height="5" fill="#2c3d22" opacity=".6"/><rect x="1489" y="972" width="15" height="5" fill="#2c3d22" opacity=".6"/><path d="M1496 176 q60 -10 120 30 q-60 -5 -120 -30Z" fill="#87a35c" opacity=".9"/><path d="M1496 706 q-60 -10 -120 30 q60 -5 120 -30Z" fill="#87a35c" opacity=".9"/><path d="M1496 575 q-60 -10 -120 30 q60 -5 120 -30Z" fill="#87a35c" opacity=".9"/><path d="M1496 635 q-60 -10 -120 30 q60 -5 120 -30Z" fill="#87a35c" opacity=".9"/><rect x="119" y="-20" width="16" height="1040" fill="#6b8a4a"/><rect x="117" y="47" width="20" height="5" fill="#2c3d22" opacity=".6"/><rect x="117" y="195" width="20" height="5" fill="#2c3d22" opacity=".6"/><rect x="117" y="315" width="20" height="5" fill="#2c3d22" opacity=".6"/><rect x="117" y="493" width="20" height="5" fill="#2c3d22" opacity=".6"/><rect x="117" y="636" width="20" height="5" fill="#2c3d22" opacity=".6"/><rect x="117" y="796" width="20" height="5" fill="#2c3d22" opacity=".6"/><rect x="117" y="954" width="20" height="5" fill="#2c3d22" opacity=".6"/><path d="M127 205 q-60 -10 -120 30 q60 -5 120 -30Z" fill="#6b8a4a" opacity=".9"/><path d="M127 279 q-60 -10 -120 30 q60 -5 120 -30Z" fill="#6b8a4a" opacity=".9"/><path d="M127 201 q60 -10 120 30 q-60 -5 -120 -30Z" fill="#6b8a4a" opacity=".9"/><path d="M127 272 q-60 -10 -120 30 q60 -5 120 -30Z" fill="#6b8a4a" opacity=".9"/><rect x="1262" y="-20" width="23" height="1040" fill="#6b8a4a"/><rect x="1260" y="61" width="27" height="5" fill="#2c3d22" opacity=".6"/><rect x="1260" y="240" width="27" height="5" fill="#2c3d22" opacity=".6"/><rect x="1260" y="386" width="27" height="5" fill="#2c3d22" opacity=".6"/><rect x="1260" y="530" width="27" height="5" fill="#2c3d22" opacity=".6"/><rect x="1260" y="708" width="27" height="5" fill="#2c3d22" opacity=".6"/><rect x="1260" y="887" width="27" height="5" fill="#2c3d22" opacity=".6"/><path d="M1274 779 q-60 -10 -120 30 q60 -5 120 -30Z" fill="#6b8a4a" opacity=".9"/><path d="M1274 489 q-60 -10 -120 30 q60 -5 120 -30Z" fill="#6b8a4a" opacity=".9"/><path d="M1274 104 q-60 -10 -120 30 q60 -5 120 -30Z" fill="#6b8a4a" opacity=".9"/><path d="M1274 264 q-60 -10 -120 30 q60 -5 120 -30Z" fill="#6b8a4a" opacity=".9"/><rect x="195" y="-20" width="20" height="1040" fill="#87a35c"/><rect x="193" y="58" width="24" height="5" fill="#2c3d22" opacity=".6"/><rect x="193" y="201" width="24" height="5" fill="#2c3d22" opacity=".6"/><rect x="193" y="378" width="24" height="5" fill="#2c3d22" opacity=".6"/><rect x="193" y="502" width="24" height="5" fill="#2c3d22" opacity=".6"/><rect x="193" y="650" width="24" height="5" fill="#2c3d22" opacity=".6"/><rect x="193" y="819" width="24" height="5" fill="#2c3d22" opacity=".6"/><rect x="193" y="972" width="24" height="5" fill="#2c3d22" opacity=".6"/><path d="M206 537 q60 -10 120 30 q-60 -5 -120 -30Z" fill="#87a35c" opacity=".9"/><path d="M206 577 q60 -10 120 30 q-60 -5 -120 -30Z" fill="#87a35c" opacity=".9"/><path d="M206 190 q-60 -10 -120 30 q60 -5 120 -30Z" fill="#87a35c" opacity=".9"/><path d="M206 344 q-60 -10 -120 30 q60 -5 120 -30Z" fill="#87a35c" opacity=".9"/><rect x="1325" y="-20" width="11" height="1040" fill="#4f6b3a"/><rect x="1323" y="117" width="15" height="5" fill="#2c3d22" opacity=".6"/><rect x="1323" y="260" width="15" height="5" fill="#2c3d22" opacity=".6"/><rect x="1323" y="431" width="15" height="5" fill="#2c3d22" opacity=".6"/><rect x="1323" y="609" width="15" height="5" fill="#2c3d22" opacity=".6"/><rect x="1323" y="736" width="15" height="5" fill="#2c3d22" opacity=".6"/><rect x="1323" y="864" width="15" height="5" fill="#2c3d22" opacity=".6"/><rect x="1323" y="986" width="15" height="5" fill="#2c3d22" opacity=".6"/><path d="M1330 681 q-60 -10 -120 30 q60 -5 120 -30Z" fill="#4f6b3a" opacity=".9"/><path d="M1330 538 q-60 -10 -120 30 q60 -5 120 -30Z" fill="#4f6b3a" opacity=".9"/><path d="M1330 596 q60 -10 120 30 q-60 -5 -120 -30Z" fill="#4f6b3a" opacity=".9"/><path d="M1330 515 q-60 -10 -120 30 q60 -5 120 -30Z" fill="#4f6b3a" opacity=".9"/><rect x="244" y="-20" width="16" height="1040" fill="#4f6b3a"/><rect x="242" y="105" width="20" height="5" fill="#2c3d22" opacity=".6"/><rect x="242" y="259" width="20" height="5" fill="#2c3d22" opacity=".6"/><rect x="242" y="387" width="20" height="5" fill="#2c3d22" opacity=".6"/><rect x="242" y="511" width="20" height="5" fill="#2c3d22" opacity=".6"/><rect x="242" y="676" width="20" height="5" fill="#2c3d22" opacity=".6"/><rect x="242" y="854" width="20" height="5" fill="#2c3d22" opacity=".6"/><path d="M253 146 q-60 -10 -120 30 q60 -5 120 -30Z" fill="#4f6b3a" opacity=".9"/><path d="M253 729 q60 -10 120 30 q-60 -5 -120 -30Z" fill="#4f6b3a" opacity=".9"/><path d="M253 516 q-60 -10 -120 30 q60 -5 120 -30Z" fill="#4f6b3a" opacity=".9"/><path d="M253 488 q60 -10 120 30 q-60 -5 -120 -30Z" fill="#4f6b3a" opacity=".9"/><rect x="1596" y="-20" width="21" height="1040" fill="#3c5530"/><rect x="1594" y="67" width="25" height="5" fill="#2c3d22" opacity=".6"/><rect x="1594" y="243" width="25" height="5" fill="#2c3d22" opacity=".6"/><rect x="1594" y="423" width="25" height="5" fill="#2c3d22" opacity=".6"/><rect x="1594" y="573" width="25" height="5" fill="#2c3d22" opacity=".6"/><rect x="1594" y="704" width="25" height="5" fill="#2c3d22" opacity=".6"/><rect x="1594" y="866" width="25" height="5" fill="#2c3d22" opacity=".6"/><path d="M1606 169 q60 -10 120 30 q-60 -5 -120 -30Z" fill="#3c5530" opacity=".9"/><path d="M1606 276 q60 -10 120 30 q-60 -5 -120 -30Z" fill="#3c5530" opacity=".9"/><path d="M1606 329 q-60 -10 -120 30 q60 -5 120 -30Z" fill="#3c5530" opacity=".9"/><path d="M1606 566 q60 -10 120 30 q-60 -5 -120 -30Z" fill="#3c5530" opacity=".9"/><rect x="248" y="-20" width="14" height="1040" fill="#6b8a4a"/><rect x="246" y="115" width="18" height="5" fill="#2c3d22" opacity=".6"/><rect x="246" y="248" width="18" height="5" fill="#2c3d22" opacity=".6"/><rect x="246" y="402" width="18" height="5" fill="#2c3d22" opacity=".6"/><rect x="246" y="570" width="18" height="5" fill="#2c3d22" opacity=".6"/><rect x="246" y="690" width="18" height="5" fill="#2c3d22" opacity=".6"/><rect x="246" y="835" width="18" height="5" fill="#2c3d22" opacity=".6"/><path d="M255 695 q-60 -10 -120 30 q60 -5 120 -30Z" fill="#6b8a4a" opacity=".9"/><path d="M255 374 q60 -10 120 30 q-60 -5 -120 -30Z" fill="#6b8a4a" opacity=".9"/><path d="M255 516 q-60 -10 -120 30 q60 -5 120 -30Z" fill="#6b8a4a" opacity=".9"/><path d="M255 6 q60 -10 120 30 q-60 -5 -120 -30Z" fill="#6b8a4a" opacity=".9"/><rect x="1325" y="-20" width="13" height="1040" fill="#4f6b3a"/><rect x="1323" y="115" width="17" height="5" fill="#2c3d22" opacity=".6"/><rect x="1323" y="250" width="17" height="5" fill="#2c3d22" opacity=".6"/><rect x="1323" y="408" width="17" height="5" fill="#2c3d22" opacity=".6"/><rect x="1323" y="536" width="17" height="5" fill="#2c3d22" opacity=".6"/><rect x="1323" y="681" width="17" height="5" fill="#2c3d22" opacity=".6"/><rect x="1323" y="845" width="17" height="5" fill="#2c3d22" opacity=".6"/><rect x="1323" y="968" width="17" height="5" fill="#2c3d22" opacity=".6"/><path d="M1331 539 q-60 -10 -120 30 q60 -5 120 -30Z" fill="#4f6b3a" opacity=".9"/><path d="M1331 276 q60 -10 120 30 q-60 -5 -120 -30Z" fill="#4f6b3a" opacity=".9"/><path d="M1331 135 q-60 -10 -120 30 q60 -5 120 -30Z" fill="#4f6b3a" opacity=".9"/><path d="M1331 268 q-60 -10 -120 30 q60 -5 120 -30Z" fill="#4f6b3a" opacity=".9"/></svg>